<svg xmlns="http://www.w3.org/2000/svg" width="256" height="256"><path fill-opacity=".016" d="M0 128.004v128.004l128.25-.254 128.25-.254.254-127.75L257.008 0H0v128.004m.485.496c0 70.4.119 99.053.265 63.672.146-35.38.146-92.98 0-128C.604 29.153.485 58.1.485 128.5" fill="#1976D2" fill-rule="evenodd"/><path fill-opacity=".179" d="M0 64v64h86.777l-2.365 5.75c-6.89 16.754.733 34.257 18.688 42.913 8.58 4.137 14.684 5.48 24.9 5.48s16.32-1.343 24.9-5.48c17.95-8.654 25.578-26.16 18.692-42.903l-2.36-5.739 43.634-.261 43.634-.26.257-63.75.258-63.75H0v64m.471.5c0 35.2.126 49.455.279 31.678.153-17.778.153-46.578-.001-64C.596 14.755.471 29.3.471 64.5m121.993 43.555c-6.671.893-9.619 1.886-8.927 3.006.312.504-.096.662-.907.351-1.852-.711-5.886 1.365-5.106 2.627.319.516-.022.707-.757.425-1.404-.539-5.767 2.923-5.767 4.575 0 1.232-.399 1.302 6.535-1.14 3.281-1.155 9.228-2.414 13.215-2.797 9.476-.911 20.286.181 27.715 2.797 6.934 2.442 6.535 2.372 6.535 1.14 0-1.652-4.363-5.114-5.767-4.575-.735.282-1.076.091-.757-.425.78-1.262-3.254-3.338-5.106-2.627-.811.311-1.212.141-.892-.377 1.257-2.034-12.163-4.032-20.014-2.98m-18.592 8.695c-1.243 1.586-1.208 1.621.378.378 1.666-1.307 2.195-2.128 1.372-2.128-.207 0-.995.787-1.75 1.75M150 115.378c0 .207.787.995 1.75 1.75 1.586 1.243 1.621 1.208.378-.378-1.307-1.666-2.128-2.195-2.128-1.372m-48.447 15.537a1.116 1.116 0 0 0 .362 1.532c.521.322 1.21.159 1.532-.362a1.116 1.116 0 0 0-.362-1.532 1.116 1.116 0 0 0-1.532.362m44 0a1.116 1.116 0 0 0 .362 1.532c.521.322 1.21.159 1.532-.362a1.116 1.116 0 0 0-.362-1.532 1.116 1.116 0 0 0-1.532.362m-23.891 4.646c-1.562.877-2.615 1.82-2.341 2.093.421.421 9.137.643 16.143.411 1.821-.06 1.844-.185.325-1.705-2.325-2.324-10.583-2.792-14.127-.799" fill="#1976D2" fill-rule="evenodd"/><path fill-opacity=".126" d="M0 64v64h43.5c23.925 0 43.498.113 43.495.25-.002.137-1.116 2.95-2.476 6.25-4.872 11.827-2.817 22.824 6.057 32.409C99.778 176.848 112.555 182 128 182s28.222-5.152 37.424-15.091c8.874-9.585 10.929-20.582 6.057-32.409-1.36-3.3-2.474-6.108-2.476-6.239-.003-.132 19.683-.357 43.745-.5l43.75-.261.257-63.75.258-63.75H0v64m.471.5c0 35.2.126 49.455.279 31.678.153-17.778.153-46.578-.001-64C.596 14.755.471 29.3.471 64.5m128.784 13.75c-.544.688-1.455 2.15-2.024 3.25-.998 1.93-.736 1.994 7.462 1.835 7.314-.142 8.832-.479 10.902-2.424 1.323-1.243 2.405-2.631 2.405-3.085 0-1.391-17.624-.992-18.745.424M87.022 95.527c-.012 1.666-.709 4.008-1.548 5.206-1.441 2.058-1.126 2.834 5.675 13.973 3.96 6.487 7.367 12.002 7.571 12.256.204.254 1.244-.083 2.312-.75 2.478-1.548 7.998-1.509 10.055.07 6.676 5.126 4.078 15.043-4.291 16.375-3.223.513-4.115.178-6.878-2.586-2.87-2.869-3.118-3.592-2.581-7.515.514-3.749.327-4.411-1.37-4.854-1.081-.283-2.222-.099-2.535.408-.314.508-.996.66-1.516.338-1.116-.689-5.909 9.153-5.869 12.052.034 2.407 6.916 10.763 6.938 8.424.02-2.075 4.174-5.924 6.395-5.924 6.964 0 9.475 8.417 3.766 12.626-1.302.96-1.094 1.349 1.414 2.641 12.422 6.403 34.458 6.403 46.88 0 2.508-1.292 2.716-1.681 1.414-2.641-5.777-4.259-3.189-12.626 3.906-12.626 2.111 0 6.24 3.92 6.24 5.925 0 .713 1.565-.441 3.477-2.565 1.912-2.123 3.483-4.76 3.49-5.86.02-2.919-4.774-12.738-5.883-12.052-.52.322-1.202.17-1.516-.338-.313-.507-1.454-.691-2.535-.408-1.697.443-1.884 1.105-1.37 4.854.537 3.923.289 4.646-2.581 7.515-2.763 2.764-3.655 3.099-6.878 2.586-8.369-1.332-10.967-11.249-4.291-16.375 2.057-1.579 7.577-1.618 10.055-.07 1.068.667 2.108 1.004 2.312.75.204-.254 3.611-5.769 7.571-12.256 6.801-11.139 7.116-11.915 5.675-13.973-.839-1.198-1.536-3.54-1.548-5.206l-.022-3.027-1.991 2.5c-3.012 3.782-7.712 13.994-8.515 18.5-1.015 5.699-1.36 5.954-4.31 3.192-5.568-5.213-17.613-9.668-26.14-9.668-8.527 0-20.572 4.455-26.14 9.668-2.95 2.762-3.295 2.507-4.31-3.192-.803-4.506-5.503-14.718-8.515-18.5l-1.991-2.5-.022 3.027M133 99l-2.136 3h3.381c2.451 0 4.171-.825 6.255-3l2.874-3h-4.119c-3.435 0-4.473.498-6.255 3m-31.85 31.95c.43 1.289 1.801 1.521 1.925.325.041-.399-.465-.905-1.125-1.125-.66-.22-1.02.14-.8.8m44 0c.43 1.289 1.801 1.521 1.925.325.041-.399-.465-.905-1.125-1.125-.66-.22-1.02.14-.8.8M123 140.393c0 .766.675 1.652 1.5 1.969 2.51.963 1.775 3.638-1 3.638-1.556 0-2.5-.567-2.5-1.5 0-1.482-2.104-2.062-3.266-.9-.835.834 1.346 5.365 2.677 5.559 2.914.426 13.277.577 14.687.214 1.744-.449 4.135-4.806 3.168-5.773-1.162-1.162-3.266-.582-3.266.9 0 .933-.944 1.5-2.5 1.5-2.775 0-3.51-2.675-1-3.638.825-.317 1.5-1.203 1.5-1.969 0-1.005-1.393-1.393-5-1.393s-5 .388-5 1.393" fill="#1976D2" fill-rule="evenodd"/><path fill-opacity=".739" d="M0 64v64H87.889l-2.645 5.75c-5.642 12.262-2.644 26.276 7.562 35.354 8.272 7.358 23.331 12.861 35.194 12.861 6.757 0 17.572-2.573 24.412-5.807 18.313-8.66 25.854-26.085 18.349-42.398l-2.641-5.739 44.19-.261 44.19-.26.257-63.75.258-63.75H0v64m.471.5c0 35.2.126 49.455.279 31.678.153-17.778.153-46.578-.001-64C.596 14.755.471 29.3.471 64.5m123.308 22.25-5.472 9.75 3.596.285c6.008.476 6.367.793 4.655 4.102l-1.511 2.923 4.977.345c4.717.327 5.25.1 10.226-4.362l5.25-4.706-4.75-.044c-2.799-.025-4.75-.501-4.75-1.157 0-.613 2.338-3.876 5.196-7.25 2.857-3.375 5.852-6.923 6.655-7.886 1.373-1.647.871-1.75-8.57-1.75h-10.029l-5.473 9.75M86 95.845c0 4.664-2.378 7.155-6.829 7.155-4.305 0-4.158 2.163.655 9.61 3.629 5.614 6.64 8.72 12.215 12.602 2.408 1.676 2.416 1.724.372 2.324-3.263.957-6.623 8.923-7.171 17.004-.627 9.235 1.928 15.439 9.184 22.301C103.511 175.434 113.359 179 128 179c14.641 0 24.489-3.566 33.574-12.159 7.256-6.862 9.811-13.066 9.184-22.301-.548-8.081-3.908-16.047-7.171-17.004-2.044-.6-2.036-.648.372-2.324 5.575-3.882 8.586-6.988 12.215-12.602 4.872-7.539 4.976-9.61.481-9.61-4.285 0-6.655-2.61-6.655-7.329 0-2.019-.354-3.671-.786-3.671-1.75 0-8.398 11.803-10.381 18.427-1.164 3.89-2.24 7.223-2.391 7.406-.152.184-1.257-.648-2.457-1.848-1.201-1.201-5.176-3.601-8.834-5.334-6.147-2.912-7.446-3.151-17.151-3.151s-11.004.239-17.151 3.151c-3.658 1.733-7.633 4.133-8.834 5.334-1.2 1.2-2.305 2.032-2.457 1.848-.151-.183-1.227-3.516-2.391-7.406C95.184 103.803 88.536 92 86.786 92c-.432 0-.786 1.73-.786 3.845m16.315 30.162C94.459 129.173 97.414 142 106 142c8.427 0 11.461-11.642 4.035-15.482-3.288-1.7-4.559-1.784-7.72-.511m44 0C138.459 129.173 141.414 142 150 142c8.427 0 11.461-11.642 4.035-15.482-3.288-1.7-4.559-1.784-7.72-.511M101 131.5c0 .825.675 1.5 1.5 1.5s1.5-.675 1.5-1.5-.675-1.5-1.5-1.5-1.5.675-1.5 1.5m44 0c0 .825.675 1.5 1.5 1.5s1.5-.675 1.5-1.5-.675-1.5-1.5-1.5-1.5.675-1.5 1.5m-21.378 8.212c-.392.391.298 1.474 1.534 2.405 1.911 1.442 2.048 1.932.922 3.289-1.831 2.206-3.566 1.993-5.347-.656-1.916-2.85-3.423-1.563-1.951 1.667 1.038 2.277 1.601 2.425 9.22 2.425 7.619 0 8.182-.148 9.22-2.425 1.472-3.23-.035-4.517-1.951-1.667-1.781 2.649-3.516 2.862-5.347.656-1.126-1.357-.989-1.847.922-3.289 2.805-2.115 1.89-3.117-2.844-3.117-2.017 0-3.987.32-4.378.712m-28.051 5.859C92.039 149.104 94.854 156 99.829 156c2.862 0 6.171-3.402 6.171-6.345 0-4.821-6.964-7.548-10.429-4.084m56.084.258c-2.225 2.459-2.087 5.739.345 8.171 3.938 3.938 10 1.358 10-4.257 0-5.25-6.806-7.825-10.345-3.914" fill="#1976D2" fill-rule="evenodd"/></svg>